/* XPM */
static const char *findinfile[]={
"32 32 3 1",
". c None",
"# c #303030",
"a c #ffffff",
"................................",
"................................",
"................................",
"................................",
"................................",
"................................",
"................................",
"................................",
"................................",
"............###########.........",
"..........##############........",
"........##################......",
"......#######a########.#####....",
"....#####..#aaa#######...####...",
".######...###a#########...####..",
".###......#############.....###.",
"..###.....#############.....###.",
"...###....#############.....##..",
"....####..#############.....##..",
".....####..###########....###...",
"......###..###########...###....",
".......####.#########.#####.....",
".........################.......",
"..........#############.........",
"................................",
"................................",
"................................",
"................................",
"................................",
"................................",
"................................",
"................................"};
