/* XPM */
static char *lekho[]={
"32 32 2 1",
". c None",
"# c #000040",
"................................",
"................................",
".....######################.....",
"....######################......",
"...######################.......",
".....................###........",
".....................###........",
".....................###........",
"........#####.....######........",
"......#########.########........",
"......##....#######.####........",
".....##.......###....###........",
".....##.####...#.....###........",
".....########........###........",
".....########........###........",
".....########........###........",
"......######.........###........",
".......####..........###........",
".....................###........",
".....................###........",
".....................###........",
".....................###........",
".....................###........",
".....................###........",
".....................###........",
".....................##.........",
".....................#..........",
"................................",
"................................",
"................................",
"................................",
"................................"};
