/* XPM */
static char *lekho[]={
"34 34 7 1",
"b c #303030",
"# c #808080",
"c c #c0c0ff",
". c #dcdcdc",
"a c #ff0000",
"e c #ffff00",
"d c #ffffff",
"......................##..........",
".....................##a#.........",
"....................##aa##........",
"...................##aaaa##.......",
"..................##aaaaaa##......",
".................##aaaaaaaa##.....",
".......bbbbbbbbbbbbbbbbbbbbbb#....",
"......bbbbbbbbbbbbbbbbbbbbbbc##...",
".....bbbbbbbbbbbbbbbbbbbbbbccc##..",
"..............###ddddddbbbccccc##.",
".............###dddddddbbbcccccc#.",
"............###ddddddddbbbccccc#..",
"..........bbbbbdddddbbbbbbcccc#...",
"........bbbbbbbbbdbbbbbbbbccc#....",
"........bbeeeebbbbbbbebbbbcc#.....",
".......bbeeeeeeebbbeeeebbbc#......",
"......#bbebbbbeeebeeeeebbb#.......",
".....##bbbbbbbbeeeeeeeebbb........",
"....###bbbbbbbbeeeeeee#bbb........",
"...###ebbbbbbbbeeeeee##bbb........",
"..###eeebbbbbbeeeeee###bbb........",
"..###eeeebbbbeeeeee###.bbb........",
"...###eeeeeeeeeeee###..bbb........",
"....###eeeeeeeeee###...bbb........",
".....###eeeeeeee###....bbb........",
"......###eeeeee###.....bbb........",
".......###eeee###......bbb........",
"........###ee###.......bbb........",
".........######........bbb........",
"..........####.........bb.........",
"...........##..........b..........",
"..................................",
"..................................",
".................................."};
