/* XPM */
static const char *redoxpm[]={
"32 32 3 1",
"# c None",
". c #000000",
"a c #808000",
".###############################",
"...#############################",
".....###########################",
".......#########################",
"..a......#######################",
"..aaa.......####################",
"..aaaaaa......##################",
"..aaaaaaaa......################",
"..aaaaaaaaaaa.....##############",
"..aaaaaaaaaaaaa......###########",
"..aaaaaaaaaaaaaaa......#########",
"..aaaaaaaaaaaaaaaaaa.....#######",
"..aaaaaaaaaaaaaaaaaaaa.....#####",
"..aaaaaaaaaaaaaaaaaaaaaaa....###",
"..aaaaaaaaaaaaaaaaaaaaaaaaa.....",
"..aaaaaaaaaaaaaaaaaaaaaaa.....##",
"..aaaaaaaaaaaaaaaaaaaaa.....####",
"..aaaaaaaaaaaaaaaaaaa.....######",
"..aaaaaaaaaaaaaaaaa.....########",
"..aaaaaaaaaaaaaaa.....##########",
"..aaaaaaaaaaaaaa.....###########",
"..aaaaaaaaaaaa.....#############",
"..aaaaaaaaaa.....###############",
"..aaaaaaaa.....#################",
"..aaaaaa.....###################",
"..aaaa.....#####################",
"..aa......######################",
"........########################",
"......##########################",
"....############################",
"..##############################",
".###############################"};
