/* XPM */
static const char *spell[]={
"32 32 8 1",
"f c None",
"e c #008000",
". c #00c000",
"d c #00ff00",
"a c #303030",
"c c #c0c0ff",
"# c #ff0000",
"b c #ff00ff",
"...............................#",
".....aaaaaaaaaaaaa............##",
"....aaaaaaaaaaaaaaaa.........##b",
".............aaa..aaa........#bb",
"............aaaa...aa.......##bb",
"...........aacaa....aa.....##bbb",
"..........aaccaa....aa.....##bbb",
".........aacccaa.aaaaa....##bbbb",
"........aaccccaa.aaaa....##bbbbb",
".......aacccccaa.aaa.....##bbbbb",
"......aaccccccaa........##bbbbbb",
".....aaaacccccaa.......###bbbbbb",
".......aaaccccaa.......##bbbbbbb",
".........aaaccaa......##bbbbbbbb",
"...........aacaa.....###bbbbbbbb",
".........ddddddddddddddbbbbbbbbb",
"........dddddddddddddd#bbbbbbbbb",
"..........dd..aa....ddbbbbbbbbbb",
"...........ddd.....#ddbbbbbbbbbb",
".............dd...##ddbbbbbbbbbb",
"##.........ddddd..##ddbbbbbbbbbb",
"e##.......dd...dd###ddbbbbbbbbbb",
"ee##......d....ddd#bddbbbbbbbbbb",
"eee###....dd...ddddbddbbbbbbbbbb",
"eeee###....ddddd#dddddbbbbbbbbbb",
"eeeee###....dddd#bbdddbbbbbbbbbb",
"eeeeee####....###bbdddbbbbbbbbbb",
"eeeeeee####..###bbbbddbbbbbbbbbb",
"eeeeeeee#######bbbbbddbbbbbbbbbb",
"eeeeeeeee######bbbbbfbbbbbbbbbbb",
"eeeeeeeeee####bbbbbbbbbbbbbbbbbb",
"eeeeeeeeeee###bbbbbbbbbbbbbbbbbb"};
