/* XPM */
static char *spell[]={
"32 32 10 1",
"# c #000000",
"e c #0058c0",
". c #00c000",
"h c #00ff00",
"f c #303030",
"a c #a0a0a0",
"b c #c0c0ff",
"c c #c0ffff",
"d c #ff0000",
"g c #ffff00",
"................................",
".##############.................",
"################................",
"aaaaaaa#####bbb##...............",
"aaaaaaa#####bbbb##..............",
"aaaaaa##cc##bbbb##.............d",
"aaaa###ccc##b##b##............dd",
"aaa###cccc########...........ddd",
"a###cccccc#######...........ddde",
"###ccccccc##.###...........dddee",
"####cccccc##...............ddeee",
"bb####cccc##..............ddeeee",
"bbbb###ccc##.............ddeeeee",
"bbbbb###cc##............dddeeeee",
"bbbbbbbff###............ddeeeeee",
"bbggghhhf###gggggggg...ddeeeeeee",
"bbbggggggg##ggggggggg.dddeeeeeee",
"bbbbbbggg..#...gg....dddeeeeeeee",
"bbbbbbbbgg.....gg...dddeeeeeeeee",
"bbbbbbbbgg.....gg..dddeeeeeeeeee",
"bdbbbbggggg....gg.ddddeeeeeeeeee",
"bddbbgggbbgg...ggddddeeeeeeeeeee",
"bbddbggbbbgg...ggdddeeeeeeeeeeee",
"bbdddggbbbgg..dggddeeeeeeeeeeeee",
"bbbddggbbbgggddggdeeeeeeeeeeeeee",
"bbbbdggggggggggggeeeeeeeeeeeeeee",
"bbbbbddgggbbgggggeeeeeeeeeeeeeee",
"bbbbbbddbbbddggggeeeeeeeeeeeeeee",
"bbbbbbbddbddddgggeeeeeeeeeeeeeee",
"bbbbbbbddddddbgggeeeeeeeeeeeeeee",
"bbbbbbbbddddbbbggeeeeeeeeeeeeeee",
"bbbbbbbbbddbbbbbgeeeeeeeeeeeeeee"};
