/* XPM */
static const char *spell[]={
"32 32 11 1",
"# c #000000",
"a c #0000ff",
"i c #00ff00",
"g c #303030",
"f c #58a8ff",
"e c #808000",
"b c #c0c0ff",
"d c #ff0000",
". c #ff00ff",
"h c #ffff00",
"c c #ffffc0",
"................................",
".##############.................",
"################................",
"aaaaaaa#####bbb##...............",
"aaaaaaa#####bbbb##..............",
"aaaaaa##cc##bbbb##..............",
"aaaa###ccc##b##b##..............",
"aaa###cccc########.............d",
"a###cccccc#######.............dd",
"###ccccccc##.###.............ddd",
"####cccccc##................ddde",
"ff####cccc##...............dddee",
"ffff###ccc##..............dddeee",
"fffff###cc##.............dddeeee",
"fffffffgg###............dddeeeee",
"ffhhhiiig###hhhhhhhh...dddeeeeee",
"fffhhhhhhh##hhhhhhhh..dddeeeeeee",
"ffffffhhhff#fffhh....dddeeeeeeee",
"ffffffffhhfffffhh...dddeeeeeeeee",
"ffffffffhhfffffhh..dddeeeeeeeeee",
"fdffffhhihhffffhh.dddeeeeeeeeeee",
"fddffhhhiihhfffhhdddeeeeeeeeeeee",
"ffddfhhfffhhfffhhddeeeeeeeeeeeee",
"ffdddhhfffhhffdhhdeeeeeeeeeeeeee",
"fffddhhfffhhhddhheeeeeeeeeeeeeee",
"ffffdhhhhhhhhddhheeeeeeeeeeeeeee",
"fffffddhhhffhhdhheeeeeeeeeeeeeee",
"ffffffddfffddhhhheeeeeeeeeeeeeee",
"fffffffddfddddhhheeeeeeeeeeeeeee",
"fffffffddddddfhhheeeeeeeeeeeeeee",
"ffffffffddddfffhheeeeeeeeeeeeeee",
"fffffffffddfffffheeeeeeeeeeeeeee"};
