/* XPM */
static const char *undoxpm[]={
"32 32 3 1",
". c None",
"# c #000000",
"a c #ff0000",
"...............................#",
".............................###",
"...........................#####",
".........................#######",
".......................######a##",
".....................######aaa##",
"...................######aaaaa##",
".................######aaaaaaa##",
"...............######aaaaaaaaa##",
".............######aaaaaaaaaaa##",
"...........######aaaaaaaaaaaaa##",
".........######aaaaaaaaaaaaaaa##",
".......######aaaaaaaaaaaaaaaaa##",
".....######aaaaaaaaaaaaaaaaaaa##",
"...######aaaaaaaaaaaaaaaaaaaaa##",
"#######aaaaaaaaaaaaaaaaaaaaaaa##",
"..#####aaaaaaaaaaaaaaaaaaaaaaa##",
"....#####aaaaaaaaaaaaaaaaaaaaa##",
"......#####aaaaaaaaaaaaaaaaaaa##",
"........#####aaaaaaaaaaaaaaaaa##",
"..........#####aaaaaaaaaaaaaaa##",
"............#####aaaaaaaaaaaaa##",
"..............#####aaaaaaaaaaa##",
"................#####aaaaaaaaa##",
"..................#####aaaaaaa##",
"....................#####aaaaa##",
"......................#####aaa##",
"........................#####a##",
"..........................######",
"............................####",
"..............................##",
"...............................#"};
