/* XPM */
static const char *bangla[] = {
"    16    15        2            1",
"# c #040404",
". c #808304",
"................",
"..############..",
"...##...##..#...",
"..#..#...##.#...",
"..#..##...####..",
"...##..#....#.#.",
".....###....#.#.",
"....#..#....#.#.",
"....#..###..#...",
".....###..#.#...",
"...........##...",
"...........##...",
"............#...",
"................",
"................",

};
